<svg xmlns="http://www.w3.org/2000/svg" version="1.1" viewBox="-5.0 -10.0 110.0 135.0">
 <path d="m82.301 22.801h-64.602c-4.3008 0-7.6992 3.5-7.6992 7.6992v39c0 4.3008 3.5 7.6992 7.6992 7.6992h64.5c4.3008 0 7.6992-3.5 7.6992-7.6992v-39c0.10156-4.3008-3.3984-7.6992-7.5977-7.6992zm-64.602 2.5h64.5c0.80078 0 1.6016 0.19922 2.3008 0.60156l-27.398 23.098-3.6992 3.1016c-1.8984 1.6016-4.6992 1.6016-6.6016 0l-31.301-26.203c0.69922-0.29688 1.3984-0.59766 2.1992-0.59766zm-5.0977 44.199v-39c0-1.1016 0.30078-2.1016 0.89844-2.8984l26.602 22.398-26.602 22.398c-0.60156-0.79688-0.89844-1.7969-0.89844-2.8984zm69.699 5.1992h-64.602c-0.80078 0-1.6016-0.19922-2.3008-0.60156l26.602-22.398 3 2.5c1.3984 1.1992 3.1992 1.8008 5 1.8008s3.5-0.60156 5-1.8008l3-2.5 26.602 22.398c-0.80078 0.30078-1.5 0.60156-2.3008 0.60156zm5.0977-5.1992c0 1.1016-0.30078 2.1016-0.89844 2.8984l-26.602-22.398 26.602-22.398c0.60156 0.80078 0.89844 1.8008 0.89844 2.8984z"/>
<text x="0.0" y="117.5" font-size="5.0" font-weight="bold" font-family="Arbeit Regular, Helvetica, Arial-Unicode, Arial, Sans-serif" fill="#000000">Created by ainul muttaqin</text><text x="0.0" y="122.5" font-size="5.0" font-weight="bold" font-family="Arbeit Regular, Helvetica, Arial-Unicode, Arial, Sans-serif" fill="#000000">from Noun Project</text></svg>